<?xml version="1.0" encoding="UTF-8"?>
<svg id="Layer_1" xmlns="http://www.w3.org/2000/svg" version="1.1" viewBox="0 0 1525 170">
  <!-- Generator: Adobe Illustrator 30.1.0, SVG Export Plug-In . SVG Version: 2.1.1 Build 136)  -->
  <defs>
    <style>
      .st0 {
        fill: #0d0c2b;
      }

      .st1 {
        isolation: isolate;
        opacity: .8;
      }

      .st1, .st2 {
        fill: #27bfd4;
      }
    </style>
  </defs>
  <g id="Layer_2">
    <g id="Layer_3">
      <path id="Subtraction_14" class="st1" d="M0,169.5h0V35.9c139.1,36.5,406.6,97.7,634.4,97.7s50.5-.8,73.7-2.4c24.4-1.7,47.8-4.1,69.5-7.5,21.5-3.2,42.9-7.7,63.9-13.3,10.2-2.8,20.1-5.8,29.4-9.1,9.5-3.3,18.8-7,27.5-10.8,20.4-9,41.8-17.6,63.4-25.2,20.6-7.3,42-14.2,63.7-20.2,20.5-5.8,41.7-11.1,63.1-15.8,20.1-4.4,40.9-8.4,61.8-11.8,37.7-6.2,76.9-10.8,116.5-13.7,33.6-2.5,68-3.8,102.1-3.8s43.9.5,65.3,1.5c17.2.8,34,2,50.2,3.3,20.3,1.8,34.1,3.6,40.5,4.4v160.2H0Z"/>
      <path id="Subtraction_15" class="st2" d="M0,169.5h0v-81.8c23.3,5.9,61,15.2,108.2,25.5,55.5,12.2,111,23.3,164.9,32.7,53.7,9.5,106.1,17.4,155.7,23.6H0ZM855.2,169.5h0c4.7-1,9.4-2.1,13.8-3.2,18.6-4.4,36.9-10.1,54.7-17.1,19.6-7.7,40.1-15,60.9-21.6,19.8-6.3,40.3-12.1,61.1-17.4,19.7-4.9,40-9.5,60.5-13.5,19.3-3.7,39.2-7.2,59.2-10.2,36.2-5.3,73.8-9.3,111.8-11.7,32.2-2.1,65.2-3.2,97.9-3.2s42.1.4,62.7,1.3c16.5.7,32.7,1.7,48.1,2.9,19.6,1.5,32.9,3,39,3.8v89.7h-669.7Z"/>
      <path class="st0" d="M1525,170v-18.5c-4.5.5-8.9,1.1-13.3,1.5-32.7,3.6-64,6.3-95.8,8.1-17.2,1-34.8,1.8-52.2,2.3-18.3.5-37.1.8-55.8.8h-12.2c-17.1-.1-34.9-.7-53-1.7-17.2-1-35.2-2.4-53.5-4.2-33.7-3.4-69.1-8.1-108.1-14.6-32.5-5.3-68.2-11.9-109-20.2-36.4-7.4-73.2-15.3-108.9-23h-.2c-35-7.5-71.2-15.3-106.5-22.5-39.5-8-73.8-14.4-104.9-19.5-37.2-6.1-70.8-10.7-102.6-13.7-17.1-1.7-34.1-3-50.1-3.8-16.9-.9-33.4-1.4-49.2-1.4-31.3,0-63.1.8-94.6,2.5-28.6,1.5-57.7,3.7-86.2,6.4-48.2,4.7-96,11.3-142.1,19.6-18.1,3.2-36.1,6.8-53.3,10.4-13.7,3-27.1,6-39.7,9.1C13.1,92.6.5,96.2,0,96.3v73.5h1525v.2Z"/>
    </g>
  </g>
</svg>