<?xml version="1.0" encoding="utf-8"?>
<!-- Generator: Adobe Illustrator 24.1.0, SVG Export Plug-In . SVG Version: 6.00 Build 0)  -->
<svg version="1.1" id="Layer_3" xmlns="http://www.w3.org/2000/svg" xmlns:xlink="http://www.w3.org/1999/xlink" x="0px" y="0px"
	 viewBox="0 0 1860 139.3" style="enable-background:new 0 0 1860 139.3;" xml:space="preserve">
<style type="text/css">
	.st0{fill:#03002D;}
</style>
<path class="st0" d="M1860,59c-6.9-1.7-17.2-4.1-30.4-7c-15.4-3.4-31.8-6.7-48.6-9.9c-21.1-4-43.1-7.8-65.3-11.3
	c-56.6-8.9-115.2-16.1-174.2-21.2c-35-3-70.6-5.4-105.7-7c-38.6-1.8-77.7-2.6-116-2.6c-19.4,0-39.7,0.5-60.4,1.5
	c-19.7,0.9-40.4,2.3-61.5,4.2c-39,3.4-80.1,8.3-125.8,14.9C1034,26,991.9,32.9,943.5,41.6c-43.3,7.7-87.7,16.1-130.6,24.3h0h-0.1
	l0,0c-43.7,8.3-88.9,16.9-133.5,24.8c-50.1,8.9-93.8,16.1-133.6,21.9c-47.9,7-91.3,12.1-132.6,15.8c-22.4,2-44.5,3.5-65.6,4.6
	c-22.2,1.1-44,1.7-64.9,1.9c-5,0-10,0-15,0c-22.9,0-45.9-0.3-68.4-0.9c-21.3-0.6-42.9-1.4-64-2.5c-39-2-77.4-4.9-117.5-8.8
	c-5.8-0.6-11.7-1.2-17.5-1.8v18.4H1860V59z"/>
</svg>
