<svg xmlns="http://www.w3.org/2000/svg" viewBox="0 0 1525 170"><defs><style>.cls-1,.cls-2{fill:#27bfd4;}.cls-1{isolation:isolate;opacity:0.76;}.cls-3{fill:#15133f;}</style></defs><g id="Layer_2" data-name="Layer 2"><g id="Layer_3" data-name="Layer 3"><path id="Subtraction_14" data-name="Subtraction 14" class="cls-1" d="M0,169.51H0V35.89c139.1,36.49,406.6,97.72,634.4,97.72,25.7,0,50.5-.79,73.7-2.36,24.4-1.68,47.8-4.14,69.5-7.5a586.76,586.76,0,0,0,63.9-13.31c10.2-2.76,20.1-5.82,29.4-9.07,9.5-3.35,18.8-7,27.5-10.85,20.4-9,41.8-17.55,63.4-25.24,20.6-7.3,42-14.2,63.7-20.22,20.5-5.81,41.7-11.14,63.1-15.77,20.1-4.44,40.9-8.39,61.8-11.84,37.7-6.21,76.9-10.84,116.5-13.7C1300.5,1.28,1334.9,0,1369,0c21.9,0,43.9.49,65.3,1.48,17.2.79,34,2,50.2,3.35,20.3,1.78,34.1,3.55,40.5,4.44V169.51Z"/><path id="Subtraction_15" data-name="Subtraction 15" class="cls-2" d="M0,169.51H0V87.66c23.3,5.92,61,15.19,108.2,25.54,55.5,12.23,111,23.27,164.9,32.74,53.7,9.47,106.1,17.35,155.7,23.57Zm855.2,0h0c4.7-1,9.4-2.07,13.8-3.16a423.58,423.58,0,0,0,54.7-17.06c19.6-7.69,40.1-15,60.9-21.59,19.8-6.31,40.3-12.13,61.1-17.36,19.7-4.93,40-9.46,60.5-13.51,19.3-3.74,39.2-7.2,59.2-10.15,36.2-5.33,73.8-9.27,111.8-11.74,32.2-2.07,65.2-3.15,97.9-3.15,21,0,42.1.39,62.7,1.28,16.5.69,32.7,1.67,48.1,2.86,19.6,1.48,32.9,3,39,3.84v89.74Z"/><path class="cls-3" d="M1525,170V151.46c-4.5.49-8.9,1.09-13.3,1.48-32.7,3.65-64,6.31-95.8,8.09-17.2,1-34.8,1.77-52.2,2.26-18.3.5-37.1.79-55.8.79h-12.2c-17.1-.1-34.9-.69-53-1.67-17.2-1-35.2-2.37-53.5-4.24-33.7-3.36-69.1-8.09-108.1-14.6-32.5-5.32-68.2-11.93-109-20.21-36.4-7.4-73.2-15.29-108.9-23H863C828,92.89,791.8,85.1,756.5,77.9c-39.5-8-73.8-14.4-104.9-19.52C614.4,52.26,580.8,47.73,549,44.67c-17.1-1.68-34.1-3-50.1-3.85-16.9-.88-33.4-1.38-49.2-1.38-31.3,0-63.1.79-94.6,2.47-28.6,1.48-57.7,3.65-86.2,6.41-48.2,4.73-96,11.34-142.1,19.62-18.1,3.25-36.1,6.8-53.3,10.45-13.7,3-27.1,6-39.7,9.08C13.1,92.59.5,96.24,0,96.34V169.8H1525Z"/></g></g></svg>