<?xml version="1.0" encoding="UTF-8"?>
<svg id="Layer_1" xmlns="http://www.w3.org/2000/svg" version="1.1" viewBox="0 0 1525 269.7">
  <!-- Generator: Adobe Illustrator 30.2.1, SVG Export Plug-In . SVG Version: 2.1.1 Build 1)  -->
  <defs>
    <style>
      .st0 {
        fill: #d5cce2;
      }

      .st1 {
        fill: #358fa6;
      }

      .st2 {
        fill: #6f4b9b;
      }

      .st3 {
        fill: #0d0c2b;
      }

      .st4 {
        fill: #293155;
      }

      .st5 {
        fill: #b18ce5;
      }

      .st6 {
        fill: #5b3099;
      }

      .st7 {
        fill: #59cfba;
      }

      .st8 {
        fill: #055e91;
      }

      .st9 {
        fill: #bda6e2;
      }
    </style>
  </defs>
  <polyline class="st3" points="0 269.8 0 218 765 214 996.9 23.2 1524.7 23.2 1525 269.8"/>
  <g>
    <path class="st1" d="M1025.8,26.5l499.2-.5v3l-485.2.5c-7.7,0-15.1,2.6-20.5,7.1l-216.3,179.5c-3.7,3.1-8.8,4.8-14.1,4.8h-9.4l225.8-187.4c5.4-4.5,12.8-7.1,20.5-7.1h0Z"/>
    <path class="st8" d="M1047.8,33.8l477.2-.5v3.7l-468.8.5c-7.7,0-15.1,2.6-20.5,7.1l-206.7,171.5c-3.7,3.1-8.8,4.8-14.1,4.8h-4.6l217-180.1c5.4-4.5,12.8-7.1,20.5-7.1h0Z"/>
    <path class="st4" d="M1062.3,41.7l462.8-.5v16.8l-470.9.5c-7.2,0-14.1,2.4-19.2,6.6-32.7,27.1-155.7,129.2-181.9,151-3.7,3.1-8.8,4.8-14.1,4.8h-4.6l207.5-172.2c5.4-4.5,12.8-7.1,20.5-7.1h-.1Z"/>
    <path class="st0" d="M723.2,202c7.1,0,13.9-2.3,18.9-6.5L955.5,18.4c5.4-4.5,12.8-7.1,20.5-7.1l549-.5v3.4l-533.1.5c-7.7,0-15.1,2.6-20.5,7.1l-215.4,178.8c-5,4.1-11.8,6.5-18.9,6.5H0v-5.1h723.2Z"/>
    <path class="st9" d="M703,189.6c7.1,0,13.9-2.3,18.9-6.5L929.8,10.5c5.4-4.5,12.8-7.1,20.5-7.1l574.8-.5v3.6l-557.9.5c-7.7,0-15.1,2.6-20.5,7.1l-209.6,174c-5,4.1-11.8,6.5-18.9,6.5H0v-5.1h703Z"/>
    <path class="st5" d="M679.4,177.1c7.1,0,13.9-2.3,18.9-6.5l142.8-118.5c4-3.3,9.4-5.1,15-5.1h12.4l-155.1,128.7c-5,4.1-11.8,6.5-18.9,6.5H0v-5.1h679.4Z"/>
    <path class="st7" d="M744,214.2c7.1,0,13.9-2.3,18.9-6.5L981.7,26.1c5.4-4.5,12.8-7.1,20.5-7.1l522.8-.5v3.2l-507.8.5c-7.7,0-15.1,2.6-20.5,7.1l-221.1,183.5c-5,4.1-11.8,6.5-18.9,6.5H0v-5.1h744Z"/>
    <path class="st2" d="M659.9,164.7c7.1,0,13.9-2.3,18.9-6.5l81.4-67.5c4-3.3,9.4-5.1,15-5.1h8.9l-93.7,77.7c-5,4.1-11.8,6.5-18.9,6.5H0v-5.1h659.9Z"/>
    <path class="st6" d="M642,152.2c7.1,0,13.9-2.3,18.9-6.5l46.3-38.4c4-3.3,9.4-5.1,15-5.1h7.1l-58.6,48.7c-5,4.1-11.8,6.5-18.9,6.5H0v-5.1h642Z"/>
  </g>
</svg>