<?xml version="1.0" encoding="UTF-8"?>
<svg id="Layer_3" data-name="Layer 3" xmlns="http://www.w3.org/2000/svg" viewBox="0 0 1861 479.04">
  <defs>
    <style>
      .cls-1 {
        fill: #03002d;
      }
    </style>
  </defs>
  <g id="cNoLqQ.tif">
    <g>
      <path class="cls-1" d="M1619.99,86.73c-.06-2.32-12.41-2.43-17.08-.92-4.35-10.47,13,1.35,22.21-3.83l4.11-7.03c2.11,2.22,5.56,7.5,8.5,7.93,4.18.61,10.05.44,13.55-.46l4.25-1.09c.94-.24,2.36,2.45,2.52,3.56l-19.12.54c.09,2.04,2.78,5.66,4.88,5.67l15.34.06,3.32-3.37,8.19,5.11.08,95.33,16.34,1.37.09,125.44,21.07.38c.5-4.51.94-7.6.89-10.96l-.26-16.59c7.09-1.62,21.13-2.27,25.84-.16,1.41.63,2,4.27,1.82,6.27-1.34,14.66-.77,28.18-.72,42.51l.06,17.73c0,1.2,1.78,3.43,2.76,3.42,1.22-.01,3.07-2.65,2.98-3.88-.55-7.71,1.09-14.49,1.11-21.76l.28-118.89c0-2.27,2.81-4.12,4.74-4.1l40.99.39.06,155.45c0,1.55,2.06,4.05,3.27,4.24,9.41,1.46-1.74-21.63,9.35-35.15l12.5-1.33.35-37.11,22.58.05.18,57.87,13.76.59,3.41,13.81,6.81,2.71v106.87c-5.15,1.16-8.84,1.65-14.45,1.65H6.76C2.85,479.04,0,477.57,0,474.02l.05-104.35,8.76-1.36.4-18.34c.12-5.27,15.02-1.09,19.87-3.65l.26-44.12,12.37-.96.27-91.95,57.95-.27.62-32.84,75.63-.05.71,32.85,29.26.12,1.58-9.84,35.01-.33.95-10.15c.16-1.68.33-3.97.62-5.03.35-1.33,4-1.34,5.66-1.38l14.03-.39,18.9.34c2.02.04,6.34,1.2,6.36,2.88l.29,23.68,20.13.56-.23,57.92,22.17.07c2.05,0,4.87,2.55,4.87,4.89l-.06,68.53c3.68,1.54,7.31,2.26,11.36,2.39l.04-114.23c10.09-1,19.13-1.03,29.05-.43,2.28.14,6.17-.11,6.22-2.88l.4-23.49,9.54-1.02,1.08-6.75,9.21-5.88c.08-5.8,1.55-10.14,5.92-13.17l18.7-12.95,23.45,16.92.93,9.45,9.05,4.99,1.58,6.96,9.26,2.17.28,23.89c1.63.73,5.32,1.62,7.04,1.65l4.26.06c1.08.02,2.09-3.07,2.09-4.39l-.16-23.86.04-11.51.44-54.33,58.57.03.11,137.8c0,9.35,12.15.24,12.28,7.84l.42,25.02,15.8.05.65-14.84,7.4-1.89.12-58.81,26.6-.66c4.69-.12,8.78-.21,13.94.94l.05,98.08c11.93-.39,7.4,7.75,12.58,5.71,1.12-.44,2.47-2.88,1.7-3.69-1.17-1.22-3.04-2.75-2.57-3.41l2.71-3.79c.62-.87-2.2-3.26-1.8-4.24l2.03-4.98c.39-.95-3.81-3.12-3.13-3.91l3.21-3.71c-1.55-2.45-1.94-7.68-1.2-10.14.23-.76-2.13-3.1-1.66-3.74l2.7-3.63-3.07-4.27,2.97-4.76-2.83-4.03c-.73-1.04,2.26-3.32,3.04-4.63,0-.88-3.18-3-2.64-4.02l2.55-4.83c-.1-.84-3.7-3.18-2.93-4.05l2.84-3.19c.69-.78-1.39-3.29-1.43-4.38.22-2.73.02-6.96-1.1-9.44.29-.95,2.36-3.24,1.88-4.28l-2.18-4.73c-.42-.91,3.75-2.46,3.23-3.32l-2.89-4.79c-.47-.78,2.23-2.53,2.51-3.42.33-1.07-1.31-2.65-2.62-4.47-.71-.99,1.52-3.22,2.86-4.73l-3.38-4.22,2.35-4.64c.48-.94-1.95-3.05-1.58-4.03l1.74-4.66-1.8-4.29c-.37-.87,3.14-3.81,2.39-4.76l-2.61-3.3c-.62-.78,1.14-2.18,2.91-3.96l-3.31-4.9,3.07-3.64c.77-.91-2.44-3.4-2.72-4.48l2.7-3.6c.72-.96-1.23-2.92-2.9-4.79l2.66-4.18c-1.12-2.12-1.03-6.74-.76-9.21.12-1.07-2.52-3.85-1.9-4.72l2.88-4.01c.56-.78-2.92-2.55-2.64-3.45l1.39-4.61.23-8.92c.03-1.04-2.56-3.52-1.9-4.37l2.99-3.87c-.82-1.22-3.02-3.78-2.74-5.16.19-.96,2.26-3.03,1.87-3.85l-1.69-3.62,4.13-8.06,8.94-2.46.25-24.73,7.44-3.7.34-24.02c8.53-6.21,3.09-8.19,5.21-19.68l13.15-1.13c-.66-6.45,2.64-11.5,8.93-12.05-.48,8.19,4.12,11.08,10.34,13.37,11.49,4.23,5.33-.51,12.71-.08l.36,17.33,9.48,1.88-.42,12.03c2.19,3.49,8.5,9.1,8.54,13.2l.24,24.81c.09,9.1,11.61.63,14.92,6.23l.13,145.22,10.07,1.11.1,82.26,17.29,1.34c1.62.13,4.2.24,5.51.24,1.24,0,2.4-3.21,2.41-4.7l.18-21.36c1.93-3.25,16.53,1.56,16.53-2.87l.08-123.7,24.14-.66,2.88,5.56,15.45-.29c1.55-4.17,4.01-5.59,8.08-5.37l24.14,1.32c11.8.64,23.69.32,35.56.35,1.66,0,5.01,2.27,5.01,3.94l.11,133.11,22.6-.74c.55-14.05-.41-27.31,1.02-40.61-.2,1.87,4.15-5.62,3.57-19.32l13.05.06,1.06,17.33,4.96,1.51c1.15.35,1.67,2.6,3.29,5.2.95-7.09.86-14.25.74-21.86l-.32-19.1c-.27-15.81-1.52-33.77,1.37-48.01l8.72-5.04,54.8-.12c1.37,1.5,4.21,3.77,6.14,3.78l59.24.2.17,179.56c0,2.5,9.16,2.25,9.33-.27.71-10.31.57-19.1.08-29.26l8.1-3.27v-110.96s4.32-2.26,4.32-2.26c2.4-1.25-1.74-11.89,4.38-11.93l15.19-.1.8-16.37,23.7-.19.23,26.49c0,1.12,2.12,3.44,3.2,3.74,1.3.36,4.08-1.99,4.09-3.34l.14-19.38,5.05-9.77c.07-5.68,1.28-13.43,7.46-13.88,3.95-.29,7.55-.43,9.72-3.68.47.88,3.85,3.6,5.8,3.35,5.11-.64,11.55,2.52,10.88,9.08-.5,4.94,3.35,8.93,4.48,13.48,2.36,9.53.94,19.45,1.84,29.99,5.82,1.3,11.51.06,17.05-.79,2.85-.44,6.07,2.8,10.03-.68.31,5.04.3,9.55.3,14.87l-.04,104.4c5.1,2.96,10.86,2.89,16.07-.01l.06-155.7c2.11-.77,4.61-1.12,4.69-2.14.1-1.38.18-4.19.18-5.97l.09-33.7c0-1.3-.77-4.61.2-4.77l5.04-.83.37-28.93c3.18-1.83,4.14-4.32,5.97-6.99l20.41-29.85c-.85-4.83-.79-9.73-.78-14.19l.02-10.37c.02-9.66-.3-9.98,1.14-20.48.08-.55,2.8-1.56,3-1.04s.94,2.14.9,2.7l-.52,7.58c-.04.54,2,2,2.07,1.45s.27-2.03.24-2.72l-.23-6.56,1.89-.6c.39-.13.95,1.82.96,2.47l.55,45.02,23.66,33.98.44,26.54c.01.64,1.13,2.69,1.75,2.61l4.16-.5.3,45.61c3.16.95,4.97,2.27,4.97,4.68l.03,98.08c4.97,1.21,6.25,3.59,7.29,8.29l14.78.31,2.06-7.59,23.97-.11,3.39,7.07,8.04,1.37.18,76.76,6.58,1.17c1.18.21,3.2-2.53,3.2-4.23l.03-236.01-11.52-4.62-6.98-20.41c-.85-2.48,2.01-6.13,4.07-6.58l12.56-2.76,1.62-6.22c1.55,2.3,3.68,4.47,5.8,4.13,1.92-.3,3.05-3.66,2.99-5.94l-.32-12.92-.1-14.85c-.04-5.34-.26-10.13.53-15.58l.46-3.17c.09-.64.8.06,2.61,1.26l.07,50,8.12-.16,2.58,3.37,14.24,3.83c2.92,4.79-3.96,25.07-7,26.25l-10.5,4.08-.07,73.2c0,6.3,9.76.23,12.71,3.76l.51,41.62-.04,14.14-.3,37.95c2.83,1.23,6.28,1.37,10.02.97l.11-42.95,9.91-2.66.19-64.47,31.79.04c1.16,0,3.67-.54,4.5-1.11,1.03-.71,1.64-3.47,1.64-4.98l-.05-30.08,12.72-1.4.16-59.61c0-1.54,1.94-4.21,2.57-4l4.1,1.36c3.62,1.2,17.22,3.68,21.08-3.94.4-.78-2.14-1-3.62-1.17l-3.73-.43s1.15-1.2,2.09-2.19c6.83,2.67,10.61-1.58,14.09-7.24,2.39,3.22,4.83,6.91,6.95,7.36l4.15.88c.8.17-1.46,2.26-1.9,3.08.04,4.19,4.78,5.32,8.8,4.84l14.65-1.75c6.96-.83,16.19,3.72,23.11-.48,3.52-2.13,3.04,4.27,22.1,1.42,1.09-.16,2.48-2.86,2.45-3.91ZM637.46,352.64c.2-1.22-.48-4.95-1.29-5.75s-2.71-1.11-4.51-1.27c-.67,3.05-.94,8.59-.3,11.31.29,1.25,4.97,2.83,5.18,1.55l.93-5.83Z"/>
      <path class="cls-1" d="M637.46,352.64l-.93,5.83c-.21,1.29-4.89-.3-5.18-1.55-.64-2.72-.36-8.25.3-11.31,1.81.16,3.7.46,4.51,1.27s1.49,4.53,1.29,5.75Z"/>
    </g>
  </g>
</svg>