<?xml version="1.0" encoding="UTF-8"?>
<svg id="amfam" xmlns="http://www.w3.org/2000/svg" viewBox="0 0 256 255.91">
  <defs>
    <style>
      .cls-1 {
        fill: #fff;
      }
    </style>
  </defs>
  <path class="cls-1" d="M251.53,153.95c2.35,0,4.47,1.7,4.47,4s-2.01,4-4.47,4-4.47-1.7-4.47-4,2.12-4,4.47-4ZM251.53,161.35c2.01,0,3.69-1.5,3.69-3.4s-1.57-3.4-3.69-3.4c-2.01,0-3.69,1.5-3.69,3.4.11,1.9,1.68,3.4,3.69,3.4ZM249.85,155.55h2.01c1.23,0,1.79.4,1.79,1.3,0,.8-.56,1.2-1.45,1.3l1.45,2.1h-.89l-1.45-2h-.78v2h-.78l.11-4.7h0ZM250.63,157.65h.78c.78,0,1.45,0,1.45-.7,0-.6-.56-.7-1.12-.7h-1.12v1.4Z"/>
  <path class="cls-1" d="M247.95,109.65h-103.85l-69.76-15.7L0,112.15l1.9,6.3,72.44-17.7,68.86,15.5h104.75v-6.6Z"/>
  <path class="cls-1" d="M60.48,126.85h-6.82v2.7h5.37v3.5h-5.37v3.2h6.71v3.4h-11.51v-16.3h11.51v3.5h.11Z"/>
  <path class="cls-1" d="M87.2,123.35h-4.92v16.3h4.92v-16.3Z"/>
  <path class="cls-1" d="M212.74,123.35h-4.92v16.3h4.92v-16.3Z"/>
  <path class="cls-1" d="M157.51,139.65h-4.92v-16.3h11.51v3.5h-6.71v2.7h5.37v3.5h-5.37v6.6h.11Z"/>
  <path class="cls-1" d="M217.54,139.65h11.51v-4.1h-6.71v-12.2h-4.81v16.3Z"/>
  <path class="cls-1" d="M135.04,123.35v8.8l-4.92-8.8h-5.48v16.3h4.7v-8.8l4.92,8.8h5.48v-16.3h-4.7Z"/>
  <path class="cls-1" d="M16.77,123.35l6.15,16.3h-5.03l-1.23-3.2h-5.03l-1.23,3.2h-4.58l6.15-16.3s4.81,0,4.81,0ZM15.54,132.95l-1.34-3.6-1.34,3.6h2.68Z"/>
  <path class="cls-1" d="M116.37,123.35l6.15,16.3h-4.92l-1.23-3.2h-5.03l-1.23,3.2h-4.58l6.15-16.3s4.7,0,4.7,0ZM115.14,132.95l-1.34-3.6-1.34,3.6h2.68Z"/>
  <path class="cls-1" d="M175.51,123.35l6.15,16.3h-4.92l-1.23-3.2h-5.03l-1.23,3.2h-4.58l6.15-16.3s4.7,0,4.7,0ZM174.28,132.95l-1.34-3.6-1.34,3.6h2.68Z"/>
  <path class="cls-1" d="M71.66,134.35l2.24,5.4h4.58l-2.68-6.6c1.79-.9,2.68-2.3,2.68-4.5,0-1.6-.56-3.2-1.9-4.1-1.12-.8-2.68-1-4.02-1h-8.05v16.3h4.92v-5.4h2.24v-.1ZM69.42,130.25v-3.3h2.01c.45,0,1.01,0,1.45.2.45.3.78.8.78,1.4,0,1.5-1.23,1.6-2.35,1.6h-1.9v.1Z"/>
  <path class="cls-1" d="M239.12,123.35l-3.47,5.9-3.58-5.9h-4.7l5.81,10v6.3h4.92v-6.3l5.81-10s-4.81,0-4.81,0Z"/>
  <path class="cls-1" d="M40.02,139.65v-7.4l-3.24,7.4h-3.47l-3.24-7.4v7.4h-4.7v-16.3h5.48l4.25,9.8,4.25-9.8h5.37v16.3h-4.7Z"/>
  <path class="cls-1" d="M198.32,139.65v-7.4l-3.24,7.4h-3.47l-3.24-7.4v7.4h-4.7v-16.3h5.48l4.25,9.8,4.25-9.8h5.37v16.3h-4.7Z"/>
  <path class="cls-1" d="M101.95,127.95c-.78-.7-1.57-1-2.57-1-2.24,0-4.14,2.1-4.14,4.6s1.9,4.6,4.14,4.6c1.01,0,1.9-.4,2.57-1l2.57,2.7c-1.45,1.4-3.47,2.3-5.59,2.3-4.58,0-8.27-3.9-8.27-8.6s3.69-8.5,8.27-8.5c2.12,0,4.14.9,5.59,2.3l-2.57,2.6Z"/>
  <path class="cls-1" d="M5.81,142.95h237.89v19H5.81v-19ZM121.74,154.25l2.24,3.3h4.81l-2.79-4.2c1.9-.6,2.79-1.4,2.79-2.8,0-1-.67-2-2.01-2.6-1.12-.5-2.68-.7-4.14-.7h-9.06v10.3h4.92v-3.3h3.24ZM121.4,151.65c1.12,0,2.35-.1,2.35-1,0-.4-.22-.7-.78-.9-.45-.1-.89-.1-1.45-.1h-3.02v2.1h2.91v-.1ZM25.38,157.55h4.81v-10.2h-4.92v10.2h.11ZM144.99,150.45l-1.45,3.5h2.91l-1.45-3.5ZM136.72,157.55h5.25l.45-1.2h5.03l.45,1.2h5.25l-5.25-10.3h-5.92l-5.25,10.3ZM196.19,153.55c-.45,1.3-1.34,1.8-2.79,1.8-1.79,0-3.02-.8-3.02-2.9s1.23-2.9,3.24-2.9c1.9,0,2.46,1,2.57,1.8h5.48c-.67-4.1-5.14-4.4-8.05-4.4s-8.38.1-8.38,5.5,5.48,5.5,8.38,5.5,4.81-.4,6.04-1.2c1.23-.7,1.79-1.9,2.01-3.2h-5.48ZM210.61,157.55h13.75v-2.5h-8.83v-1.4h8.27v-2.5h-8.27v-1.4h8.83v-2.5h-13.75v10.3ZM40.69,157.55h4.58v-5.1l5.25,5.1h5.25v-10.2h-4.58v5.1h-.11l-4.92-5.1h-5.59l.11,10.2h0ZM161.54,157.55h4.58v-5.1l5.25,5.1h5.25v-10.2h-4.58v5.1h-.11l-4.92-5.1h-5.59l.11,10.2h0ZM88.76,153.75c0,3.3,2.91,4.2,7.83,4.2s7.83-1,7.83-4.2v-6.4h-4.92v6.2c0,1.3-1.45,1.7-3.02,1.7s-3.02-.4-3.02-1.7v-6.2h-4.92v6.4h.22ZM73.78,153.95c.67.1.89.4.89.7,0,.5-.45.8-1.9.8-.78,0-1.34-.1-1.68-.2-.34-.1-.45-.4-.45-.7h-5.81c0,3,4.14,3.5,7.83,3.5,5.48,0,7.94-1.2,7.94-3.7,0-1.7-1.45-2.7-3.91-3l-5.81-.7c-.45-.1-.67-.2-.67-.5,0-.4.45-.7,2.01-.7.45,0,1.12.1,1.45.2.45.1.78.4.78.8h5.59c-.11-2.2-2.35-3.3-7.94-3.3-3.91,0-7.15.7-7.15,3.4,0,1.4,1.01,2.6,3.35,2.9l5.48.5Z"/>
</svg>