<?xml version="1.0" encoding="UTF-8"?>
<svg id="bcbsfl" xmlns="http://www.w3.org/2000/svg" viewBox="0 0 256 255.91">
  <defs>
    <style>
      .cls-1 {
        fill: #fff;
      }
    </style>
  </defs>
  <path class="cls-1" d="M93.18,191.72l-58.2.05-.07-35.02L0,156.71v-58.19s34.93,0,34.93,0l.02-34.96h58.22s.04,34.94.04,34.94l34.96.03.02,58.18-34.96.04-.05,34.98ZM66.67,110.78c.61,1.22,2.44,2.26,4.02,2.25l25.77-.12c-5.99-13.11-18.85-20.94-32.61-20.84-13.62.1-26.32,7.92-32.11,20.85l25.9.1c1.6,0,3.57-1.28,3.93-2.41,1.52-4.7-5.94-7.25-1.4-12.28,2.07-2.29,5.45-2.19,7.37-.43,5.51,5.07-3.03,8.58-.88,12.87ZM57.51,125.18c.71-1.48.63-4.24.07-5.27s-2.48-2.35-3.9-2.47l-22.99-1.94c-5.13,14.27-.99,30.08,11.13,39.81,5.5-9.96,10.68-19.62,15.7-30.14ZM86.36,155.34c12.02-9.68,16.26-25.46,11.17-39.83l-22.86,1.93c-1.53.13-3.5,1.34-4.06,2.41-.61,1.15-.61,3.94.02,5.26,4.95,10.34,10.17,20.11,15.72,30.24ZM83.81,157.26l-17.31-25.15c-.45-.65-1.89-1.37-2.59-1.31-.58.05-1.85.71-2.19,1.22l-17.37,25.34c12.4,7.93,27.68,7.76,39.46-.09Z"/>
  <path class="cls-1" d="M242.74,150.22c-10.3,17.05-23.61,31.35-39.94,42.27-15.93-10.77-28.89-24.59-39.08-40.8-9.72-17.67-14.83-37.09-14.16-57.3.22-11.05,2.72-21.45,7.81-30.98,37.9,11.27,53.42,11.61,90.69.27,5.53,10.54,7.91,21.79,7.95,33.68.21,18.6-4.55,36.15-13.25,52.87ZM248.8,96.19c-.52-8.4-1.44-16.43-4.82-23.68-34.13,9.54-48.71,8.7-82.63-.23-2.98,6.5-3.92,13.41-4.54,20.68-1.13,38.57,15.9,67.92,46.08,90.69,29.43-22.34,45.94-50.4,45.92-87.46Z"/>
  <path class="cls-1" d="M88.29,108.41l-16.72.15c2.04-3.54,2.8-6.6,1.62-10.64,5.93,2.05,10.94,4.72,15.11,10.49Z"/>
  <path class="cls-1" d="M56.64,108.54l-16.82-.03c3.66-5.23,8.82-8.5,14.89-10.43-.72,4.1-.33,6.83,1.93,10.46Z"/>
  <path class="cls-1" d="M53.81,121.98c-3.79,9.26-8.33,17.07-13.07,26.1-6.87-7.75-9.21-17.9-6.86-27.83l19.93,1.73Z"/>
  <path class="cls-1" d="M87.35,147.93l-12.25-23.59c-.27-.52-.53-1.96-.16-2.14s1.34-.52,1.74-.55l17.66-1.32c2.2,10.11-.05,20.33-7,27.61Z"/>
  <path class="cls-1" d="M77.33,155.84c-8.68,3.9-17.73,3.93-26.55,0l13.31-19.36,13.24,19.35Z"/>
  <path class="cls-1" d="M230.86,143.73c-7.54,12.43-16.69,22.8-27.96,32.06-11.2-9-20.64-19.73-28.17-32.09-5.84-11.09-9.49-22.55-11.11-35-1.04-9.77-.89-19.45,1.66-28.84,31.31,7.29,43.21,8.03,74.83.25,2.36,8.1,2.68,16.51,2.2,25.03-1.17,13.65-4.97,26.21-11.46,38.58ZM215.1,100.23c.7-.69.37-2.9,0-3.72-.34-.71-2.08-1.97-2.79-1.63-1.87.88-3.6,1.87-5.7,3.06l-.94-4.95c-2.43-1.08-6.08-1.49-8.6-.7,2.44,2.38,9.37,5.63,5.84,8.9l1.61,1.39c-1.94.06-3.33.05-4.47.31-.86.2-1.64,1.92-1.96,3.17l9.3,1.77,7.72-7.59ZM206.81,109.79l-13.95-2.29c-.84-.14-2.16-1.29-2.58-1.8-.35-.43.08-1.8.46-2.28,3.04.55,6.15.95,8.34-1.08-2.32-.28-4.66-.76-5.13-3.14l7.91-.3c-2.76-4.4-7.84-5.45-12.67-4.14s-7.48,4.49-8,8.95,2.02,8.45,6.42,10.46c8.07,3.69,17.67,1.77,19.46,5.09,1.08,2,.18,5.03.31,7.7,2.79-.47,6.89-2.21,7.87-5.49,1.58-5.27-2.97-10.79-8.43-11.68ZM205.58,127.95c.29-2.59.48-5.19.27-7.42-2.46-1.7-6.15-1.79-8.47-.3-.47,1.54-.11,5.31,1.22,6.17,1.92,1.24,4.44,1.36,6.98,1.56ZM207.8,144.01c2.01.01,4.61-1.36,5.42-3.37s.39-4.77-1.34-6.51c-7.14-7.2-14.54-.77-16.27-10.13-2.52-.62-4.56,2.29-4.19,5.13.49,3.82,3.61,6.91,7.63,7.6l7.72,1.33c.75,1.44.96,3.99,1.03,5.94ZM205.46,140.64c-.51-1.22-3.95-1.22-4.33-.11-1,2.92,1.3,5.22,4.54,5.44.24-1.38.43-3.81-.21-5.33ZM211.2,152.46c-2.93-6.56-11-2.29-13.23-12.25-2.05.78-3.56,2.16-3.94,3.86-1.62,7.38,11.76,8.24,13.77,12.72,1.63.05,4.46-1.96,3.4-4.33ZM206.35,158.66c-.18-2.36-3.21-3.77-5.3-3.84l.3,11.55c.03,1.19,1.62,2.35,2.67,2.19,2.88-.45,2.54-7.28,2.34-9.9ZM199.43,160.61c-1.83.85-2.21,1.59-2,2.84.15.87.97,1.63,2.2,2.06l-.2-4.91Z"/>
</svg>