<?xml version="1.0" encoding="UTF-8"?>
<svg id="ge" xmlns="http://www.w3.org/2000/svg" viewBox="0 0 256 255.91">
  <defs>
    <style>
      .cls-1 {
        fill: #fff;
      }
    </style>
  </defs>
  <path class="cls-1" d="M130.43,255.91h-4.76c.07-.01-.48-.29-.62-.29l-5.57-.08-2.78-.17C57.14,251.83,4.08,198.78.54,139.24l-.17-2.83-.09-5.42c0-.08-.33-.56-.28-.45v-5.06c.2-1.97.29-4.04.4-6.24l.14-2.76C3.66,56.11,61.06,1.02,119.69.11l5.08-.08c2.25-.03,4.32-.04,6.57,0l5.09.08c60.29,1,118.41,59.16,119.37,119.39l.08,5.08c.04,2.25.26,4.32,0,6.57-.18,1.58.04,3.12-.06,4.79-2.01,33.82-17.56,65.41-42.93,87.84-20.47,18.1-46.16,29.75-73.46,31.59l-2.77.19c-2.15.14-4.31-.18-6.23.36ZM208.15,219.9c54.28-47.36,56.07-130.84,3.84-180.5-20.08-19.09-46.87-31.32-75.28-33.29-35.89-2.49-70.94,10.82-96,36.52-46.23,47.4-46.25,123.05.03,170.46,45.44,46.55,119.06,48.99,167.41,6.81Z"/>
  <path class="cls-1" d="M187.28,225.61c-25.09,15.91-56.33,19.72-85.17,13.83-.97-.2-11.62-2.62-10.31-3.82.16-.15.53-.2.86-.1,9.21,2.79,18.61,4.2,28.25,4.02,7.43-.14,17.59-2.15,21.85-8.76,2.47-3.83,2.16-8.78-1.2-11.9-3.03-2.81-7.53-3.06-11.12-.99-1.85,1.07-3.47,2.39-5.12,3.78-4.61,3.85-9.94,6.16-16.02,6.69-11.54,1-23.41-1.84-34.33-5.65-26.67-9.31-45.81-30.43-54.89-56.94-8.17-23.85-8.23-49.74-.61-73.7.04-.14.27-.51.36-.47l.77.32c-2.87,9.49-4.46,19.13-4.24,29.1.15,7.08,2.07,16.44,7.97,20.9,2.64,1.99,6.04,2.86,9.22,1.85,4.93-1.57,7.01-6.85,5.23-11.64-.94-2.52-2.71-4.47-4.2-6.75-.27-.41-.5-.71-.86-1.14-10.77-13.15-4.92-36.6.47-51.15,5.74-15.5,15.78-28.78,28.99-38.71,20.49-15.4,47.21-22.06,72.62-20.46,9.48.6,19.35,2.65,28,5.5.34.11.7.9.52,1.02s-.53.15-.88.03c-10.15-3.39-20.77-4.9-31.49-4.09-7.39.56-17.76,3.83-19.84,11.77-1.02,3.9.36,7.93,3.9,9.88s7.43,1.5,10.62-.67c1.78-1.21,3.39-2.47,5.1-3.81,4.31-3.36,9.28-5.25,14.8-5.77,12.09-1.14,25.22,2.08,36.55,6.29,22.92,8.53,39.92,25.9,49.68,48.13,11.11,25.29,12.55,55.81,3.98,81.78-.14.43-.61.66-.76.57-.2-.12-.49-.61-.42-.83,2.62-8.92,4.24-17.86,4.22-27.17-.02-7.19-1.53-15.9-6.48-21.26-2.08-2.26-4.8-3.6-7.84-3.69-4.51-.14-8.09,2.91-8.61,7.36-1.18,9.99,9.63,11.11,11.32,27.42.59,5.74.18,11.3-.8,16.98-.84,4.86-2.2,9.29-3.59,14.01-5.92,20.11-18.76,37.04-36.49,48.28ZM167.28,148.53c2.3-3.5,6.5-4.64,10.41-3.66,3.4.85,6.06,3.3,7.57,6.58,3.78,8.21,2.32,18.05-3.59,24.91-4.71,5.46-11.64,7.96-18.78,6.97-11.83-1.65-19.28-12.43-20.91-23.63-2.45-16.85,5.11-34.14,22.17-39.19,4.62.51,19.81,2.46,19.85-5.01.02-4.01-5.06-5.37-8.42-5.86-3.92-.57-7.69.31-11.46,1.2-2.56-1.06-4.27-3.84-5.16-6.4,10.47-8.13,26.01-20.65,24.65-35.22-.53-5.67-4.68-9.77-10.29-10.43-9.51-1.11-17.14,5.67-21.66,13.44-5.22,8.99-7,19.35-5.31,29.75-6.16,4.55-12.32,8.7-18.84,12.57l-9.42,5.59c.29-3.77.08-7.51,1.52-10.53,3.35-4.49,9.75-10.82,9.82-16.89.02-1.41-.57-2.88-1.47-3.66-1.02-.89-2.53-1.1-3.94-.85-6.87,1.22-11.43,11.58-12.66,17.86-3.26,4.13-10.6,9.82-16.13,8.85-2.57-.45-4.19-2.75-4.75-5.16,10.81-4.13,20.34-13.9,25.64-23.8,2.97-5.54,5.64-13.77,3.89-19.84-1.07-3.71-3.88-6.26-7.64-7.09-9.3-2.05-17.39,3.97-22.68,11.1-6.59,8.89-10.27,19.48-10.71,30.66-2.7.05-4.8-1.51-6.04-3.72-3.08-5.49-1.21-11.32.03-17.01.21-.96-.22-2.34-.76-2.89-2.06-2.07-6.39-.1-8.28,3.82-2.39,4.96-2.83,10.68-1.47,16.04,2.01,7.91,8.61,13.19,16.88,13.76,2.17,8.22,8.65,14.08,17.55,12.99,4.27-.52,8.06-1.83,11.53-4.65l-1.01,6.58-21.07,11.41c-5.91,3.2-11.1,7.09-16.08,11.59-5.27,4.76-9.21,10.57-11.47,17.28-4.01,11.93,1.1,25.45,14.04,27.99,13.06,2.56,24.87-4.43,32.18-15.01,10.29-14.8,11.15-30.28,12.44-47.98,11.26-6.29,22.08-12.99,32.48-20.55,1.11,1.71,2.18,2.96,3.5,4.25-14.4,7.66-23.51,19.79-24.91,36.15-1.85,21.55,10.98,41.8,33.73,43.58,17.23,1.34,33.04-9.94,36.46-27.1,2.21-11.06-1.97-25.82-13.07-31.2-7.13-3.46-15.56-2.92-22.23,1.2-9.64,5.95-12.14,18.8-5.28,27.75,3.51,4.58,10.87,5.84,12.91,2.06,1.85-3.43-.72-5.9-2.81-8.36-2.4-2.83-3.16-6.94-.99-10.25Z"/>
  <path class="cls-1" d="M77.05,183.53c-4.51-.07-7.54-3.39-7.82-7.76-.61-9.43,6.99-17.88,13.71-23.71,7.07-5.87,14.64-10.71,23.25-14.85-1.38,11.25-4.08,23.13-9.36,32.89-4.21,7.36-10.57,13.57-19.78,13.43Z"/>
  <path class="cls-1" d="M108.57,79.13c-3.78,7.35-11.15,16.23-18.58,20.59-.18-1.59-.14-2.87.17-4.33,1.71-7.97,4.94-15.51,9.81-22.03,1.98-2.65,6.06-6.79,9.31-4.65,2.96,1.94.64,7.77-.72,10.42Z"/>
  <path class="cls-1" d="M173.79,72.52c-1.9,7.49-10.85,16.62-16.92,21.87-.47-8.15,4.76-22.42,12.04-25.81,1.25-.58,2.74-.36,3.63.31,1.13.85,1.32,2.14,1.25,3.63Z"/>
</svg>