<?xml version="1.0" encoding="UTF-8"?>
<svg id="verizon" xmlns="http://www.w3.org/2000/svg" viewBox="0 0 256 255.91">
  <defs>
    <style>
      .cls-1 {
        fill: #fff;
      }
    </style>
  </defs>
  <g id="Layer_1" data-name="Layer 1">
    <g id="Layer_1-2" data-name="Layer 1-2">
      <path class="cls-1" d="M216.56,155.35h12.61v-23.04c0-5.26,3.07-8.98,7.6-8.98s6.63,3.07,6.63,7.44v24.57h12.61v-27c0-9.14-5.5-15.6-14.39-15.6-5.66,0-9.62,2.43-12.61,6.87h-.24v-5.66h-12.21v41.39h0ZM191.83,112.84c-13.18,0-21.99,9.46-21.99,21.91s8.81,21.91,21.99,21.91,21.99-9.54,21.99-21.91-8.81-21.91-21.99-21.91h0ZM191.75,147.35c-5.98,0-9.13-5.01-9.13-12.61s3.15-12.61,9.13-12.61,9.3,4.93,9.3,12.61-3.31,12.61-9.3,12.61ZM133.96,155.35h35.41v-9.94h-20.05v-.24l19.16-21.5v-9.7h-34.51v9.94h19.4v.25l-19.4,21.66v9.54h0ZM117.79,155.35h12.69v-41.39h-12.69v41.39h0ZM88.37,155.35h12.61v-18.99c0-8.65,5.18-12.45,13.1-11.4h.25v-10.91c-.65-.25-1.38-.33-2.59-.33-4.93,0-8.25,2.26-11.08,7.12h-.25v-6.87h-12.04v41.39h0ZM65.17,147.43c-5.58,0-8.97-3.64-9.62-9.22h29.83c.08-8.9-2.26-16.01-7.2-20.45-3.48-3.24-8.09-5.02-13.9-5.02-12.45,0-21.1,9.46-21.1,21.83s8.25,21.99,21.91,21.99c5.18,0,9.3-1.38,12.69-3.72,3.64-2.51,6.23-6.14,6.95-9.78h-12.12c-1.21,2.75-3.72,4.36-7.44,4.36h-.01ZM64.53,121.81c4.45,0,7.52,3.32,8.01,8.17h-16.89c.97-4.93,3.64-8.17,8.89-8.17h0ZM117.79,99.26h12.69v11.24h-12.69v-11.24h0Z"/>
      <g>
        <path class="cls-1" d="M0,113.97l15.69,40.87c.12.31.42.52.75.52h12.73c-.33,0-.63-.21-.75-.52l-15.69-40.87H0Z"/>
        <path class="cls-1" d="M45.61,113.97l-15.69,40.87c-.12.31-.42.52-.75.52h-12.73c.33,0,.63-.21.75-.52l15.69-40.87h12.73Z"/>
      </g>
    </g>
  </g>
</svg>